<mxfile host="app.diagrams.net" modified="2020-10-22T22:47:00.355Z" agent="5.0 (Windows NT 10.0; Win64; x64) AppleWebKit/537.36 (KHTML, like Gecko) Chrome/86.0.4240.111 Safari/537.36" etag="LuDSPXcr9hr2-ckv7M-h" version="13.8.1" type="github">
  <diagram id="C5RBs43oDa-KdzZeNtuy" name="Page-1">
    <mxGraphModel dx="1422" dy="775" grid="1" gridSize="10" guides="1" tooltips="1" connect="1" arrows="1" fold="1" page="1" pageScale="1" pageWidth="827" pageHeight="1169" math="0" shadow="0">
      <root>
        <mxCell id="WIyWlLk6GJQsqaUBKTNV-0" />
        <mxCell id="WIyWlLk6GJQsqaUBKTNV-1" parent="WIyWlLk6GJQsqaUBKTNV-0" />
        <mxCell id="WIyWlLk6GJQsqaUBKTNV-2" value="" style="rounded=0;html=1;jettySize=auto;orthogonalLoop=1;fontSize=11;endArrow=block;endFill=0;endSize=8;strokeWidth=1;shadow=0;labelBackgroundColor=none;edgeStyle=orthogonalEdgeStyle;" parent="WIyWlLk6GJQsqaUBKTNV-1" source="WIyWlLk6GJQsqaUBKTNV-3" target="j8_yJqGy1lRNZSkHVBPh-15" edge="1">
          <mxGeometry relative="1" as="geometry">
            <mxPoint x="400" y="120" as="targetPoint" />
          </mxGeometry>
        </mxCell>
        <mxCell id="WIyWlLk6GJQsqaUBKTNV-3" value="&lt;font style=&quot;font-size: 19px&quot;&gt;Запуск&lt;/font&gt;" style="rounded=1;whiteSpace=wrap;html=1;fontSize=12;glass=0;strokeWidth=1;shadow=0;" parent="WIyWlLk6GJQsqaUBKTNV-1" vertex="1">
          <mxGeometry x="340" y="10" width="120" height="40" as="geometry" />
        </mxCell>
        <mxCell id="j8_yJqGy1lRNZSkHVBPh-0" value="&lt;font style=&quot;font-size: 17px&quot;&gt;&lt;br&gt;цикл&lt;br&gt;Находим все регионы&lt;/font&gt;&lt;br&gt;&lt;font style=&quot;font-size: 16px&quot; color=&quot;#0000ff&quot;&gt;(//*/li[@class=&#39;parent1&#39;]//a)&lt;/font&gt;" style="shape=loopLimit;whiteSpace=wrap;html=1;" vertex="1" parent="WIyWlLk6GJQsqaUBKTNV-1">
          <mxGeometry x="295" y="220" width="210" height="80" as="geometry" />
        </mxCell>
        <mxCell id="j8_yJqGy1lRNZSkHVBPh-14" style="edgeStyle=orthogonalEdgeStyle;rounded=0;orthogonalLoop=1;jettySize=auto;html=1;exitX=0.5;exitY=1;exitDx=0;exitDy=0;entryX=0.5;entryY=0;entryDx=0;entryDy=0;" edge="1" parent="WIyWlLk6GJQsqaUBKTNV-1" source="j8_yJqGy1lRNZSkHVBPh-1" target="j8_yJqGy1lRNZSkHVBPh-12">
          <mxGeometry relative="1" as="geometry" />
        </mxCell>
        <mxCell id="j8_yJqGy1lRNZSkHVBPh-1" value="&lt;font style=&quot;font-size: 18px&quot;&gt;цикл&lt;br&gt;Все города/посёлки&lt;/font&gt;&lt;br&gt;&lt;font style=&quot;font-size: 17px&quot; color=&quot;#3333ff&quot;&gt;//*/li[@class=&#39;parent1&#39;]//ul/li&lt;/font&gt;" style="shape=loopLimit;whiteSpace=wrap;html=1;strokeWidth=1;" vertex="1" parent="WIyWlLk6GJQsqaUBKTNV-1">
          <mxGeometry x="265" y="440" width="270" height="100" as="geometry" />
        </mxCell>
        <mxCell id="j8_yJqGy1lRNZSkHVBPh-3" value="" style="endArrow=classic;html=1;exitX=0.5;exitY=1;exitDx=0;exitDy=0;" edge="1" parent="WIyWlLk6GJQsqaUBKTNV-1" source="j8_yJqGy1lRNZSkHVBPh-0">
          <mxGeometry width="50" height="50" relative="1" as="geometry">
            <mxPoint x="570" y="440" as="sourcePoint" />
            <mxPoint x="400" y="340" as="targetPoint" />
          </mxGeometry>
        </mxCell>
        <mxCell id="j8_yJqGy1lRNZSkHVBPh-8" value="&lt;span style=&quot;font-size: 15px&quot;&gt;регион был не last child&lt;/span&gt;" style="text;strokeColor=none;fillColor=none;html=1;fontSize=24;fontStyle=1;verticalAlign=middle;align=center;strokeWidth=2;" vertex="1" parent="WIyWlLk6GJQsqaUBKTNV-1">
          <mxGeometry x="100" y="620" width="240" height="40" as="geometry" />
        </mxCell>
        <mxCell id="j8_yJqGy1lRNZSkHVBPh-10" value="&lt;font style=&quot;font-size: 17px&quot;&gt;Сохраняем в БД&lt;/font&gt;" style="rounded=0;whiteSpace=wrap;html=1;strokeWidth=2;" vertex="1" parent="WIyWlLk6GJQsqaUBKTNV-1">
          <mxGeometry x="340" y="340" width="120" height="60" as="geometry" />
        </mxCell>
        <mxCell id="j8_yJqGy1lRNZSkHVBPh-11" value="" style="endArrow=classic;html=1;exitX=0.5;exitY=1;exitDx=0;exitDy=0;entryX=0.5;entryY=0;entryDx=0;entryDy=0;" edge="1" parent="WIyWlLk6GJQsqaUBKTNV-1" source="j8_yJqGy1lRNZSkHVBPh-10" target="j8_yJqGy1lRNZSkHVBPh-1">
          <mxGeometry width="50" height="50" relative="1" as="geometry">
            <mxPoint x="570" y="380" as="sourcePoint" />
            <mxPoint x="620" y="330" as="targetPoint" />
          </mxGeometry>
        </mxCell>
        <mxCell id="j8_yJqGy1lRNZSkHVBPh-12" value="&lt;font style=&quot;font-size: 17px&quot;&gt;Сохраняем в БД&lt;/font&gt;" style="rounded=0;whiteSpace=wrap;html=1;strokeWidth=2;" vertex="1" parent="WIyWlLk6GJQsqaUBKTNV-1">
          <mxGeometry x="340" y="590" width="120" height="60" as="geometry" />
        </mxCell>
        <mxCell id="j8_yJqGy1lRNZSkHVBPh-13" value="" style="endArrow=classic;html=1;exitX=0;exitY=0.5;exitDx=0;exitDy=0;" edge="1" parent="WIyWlLk6GJQsqaUBKTNV-1" source="j8_yJqGy1lRNZSkHVBPh-12">
          <mxGeometry width="50" height="50" relative="1" as="geometry">
            <mxPoint x="110" y="440" as="sourcePoint" />
            <mxPoint x="290" y="260" as="targetPoint" />
            <Array as="points">
              <mxPoint x="160" y="620" />
            </Array>
          </mxGeometry>
        </mxCell>
        <mxCell id="j8_yJqGy1lRNZSkHVBPh-18" style="edgeStyle=orthogonalEdgeStyle;rounded=0;orthogonalLoop=1;jettySize=auto;html=1;exitX=0.5;exitY=1;exitDx=0;exitDy=0;entryX=0.5;entryY=0;entryDx=0;entryDy=0;" edge="1" parent="WIyWlLk6GJQsqaUBKTNV-1" source="j8_yJqGy1lRNZSkHVBPh-15" target="j8_yJqGy1lRNZSkHVBPh-0">
          <mxGeometry relative="1" as="geometry" />
        </mxCell>
        <mxCell id="j8_yJqGy1lRNZSkHVBPh-15" value="&lt;font style=&quot;font-size: 17px&quot;&gt;Скачиваем&lt;br&gt;https://hochu-na-yuga.ru/&lt;/font&gt;" style="rounded=0;whiteSpace=wrap;html=1;" vertex="1" parent="WIyWlLk6GJQsqaUBKTNV-1">
          <mxGeometry x="295" y="110" width="210" height="60" as="geometry" />
        </mxCell>
        <mxCell id="j8_yJqGy1lRNZSkHVBPh-28" value="" style="endArrow=classic;html=1;" edge="1" parent="WIyWlLk6GJQsqaUBKTNV-1">
          <mxGeometry width="50" height="50" relative="1" as="geometry">
            <mxPoint x="399.5" y="650" as="sourcePoint" />
            <mxPoint x="400" y="700" as="targetPoint" />
          </mxGeometry>
        </mxCell>
        <mxCell id="j8_yJqGy1lRNZSkHVBPh-29" value="&lt;font style=&quot;font-size: 17px&quot;&gt;Имеем регионы и города&lt;/font&gt;" style="rounded=0;whiteSpace=wrap;html=1;strokeWidth=2;" vertex="1" parent="WIyWlLk6GJQsqaUBKTNV-1">
          <mxGeometry x="325" y="700" width="150" height="60" as="geometry" />
        </mxCell>
        <mxCell id="j8_yJqGy1lRNZSkHVBPh-33" value="&lt;font style=&quot;font-size: 18px&quot;&gt;Проход по регионам&lt;br&gt;&lt;font color=&quot;#0000ff&quot;&gt;https://hochu-na-yuga.ru/${regionName}/&lt;/font&gt;&lt;/font&gt;" style="shape=loopLimit;whiteSpace=wrap;html=1;strokeWidth=2;" vertex="1" parent="WIyWlLk6GJQsqaUBKTNV-1">
          <mxGeometry x="213.75" y="820" width="372.5" height="100" as="geometry" />
        </mxCell>
        <mxCell id="j8_yJqGy1lRNZSkHVBPh-35" value="" style="endArrow=classic;html=1;exitX=0.5;exitY=1;exitDx=0;exitDy=0;entryX=0.5;entryY=0;entryDx=0;entryDy=0;" edge="1" parent="WIyWlLk6GJQsqaUBKTNV-1" source="j8_yJqGy1lRNZSkHVBPh-29" target="j8_yJqGy1lRNZSkHVBPh-33">
          <mxGeometry width="50" height="50" relative="1" as="geometry">
            <mxPoint x="110" y="750" as="sourcePoint" />
            <mxPoint x="160" y="700" as="targetPoint" />
          </mxGeometry>
        </mxCell>
        <mxCell id="j8_yJqGy1lRNZSkHVBPh-38" value="" style="endArrow=classic;html=1;exitX=0.5;exitY=1;exitDx=0;exitDy=0;" edge="1" parent="WIyWlLk6GJQsqaUBKTNV-1" source="j8_yJqGy1lRNZSkHVBPh-33">
          <mxGeometry width="50" height="50" relative="1" as="geometry">
            <mxPoint x="390" y="800" as="sourcePoint" />
            <mxPoint x="400" y="970" as="targetPoint" />
          </mxGeometry>
        </mxCell>
        <mxCell id="j8_yJqGy1lRNZSkHVBPh-42" style="edgeStyle=orthogonalEdgeStyle;rounded=0;orthogonalLoop=1;jettySize=auto;html=1;exitX=0;exitY=0.5;exitDx=0;exitDy=0;" edge="1" parent="WIyWlLk6GJQsqaUBKTNV-1" source="j8_yJqGy1lRNZSkHVBPh-40" target="j8_yJqGy1lRNZSkHVBPh-40">
          <mxGeometry relative="1" as="geometry">
            <mxPoint x="160" y="940" as="targetPoint" />
          </mxGeometry>
        </mxCell>
        <mxCell id="j8_yJqGy1lRNZSkHVBPh-40" value="&lt;font&gt;&lt;span style=&quot;font-size: 18px ; font-family: &amp;#34;consolas&amp;#34; , &amp;#34;lucida console&amp;#34; , &amp;#34;courier new&amp;#34; , monospace ; text-align: left&quot;&gt;&lt;font color=&quot;#0000ff&quot; style=&quot;line-height: 140% ; font-size: 18px&quot;&gt;https://hochu-na-yuga.ru/${regionName}/?PAGEN_1=${pageNumber}&lt;br&gt;&lt;/font&gt;&lt;/span&gt;&lt;span style=&quot;font-size: 18px&quot;&gt;меняем pageNumber&lt;br&gt;&lt;/span&gt;&lt;font style=&quot;font-size: 21px&quot;&gt;&lt;b&gt;проходим по&lt;/b&gt;&lt;/font&gt;&lt;br&gt;&lt;span style=&quot;font-size: 18px&quot;&gt;&lt;font color=&quot;#0000ff&quot;&gt;//div[@classs=&#39;goods_detail&#39;]//ul/li&lt;/font&gt;&lt;/span&gt;&lt;br&gt;&lt;/font&gt;" style="shape=loopLimit;whiteSpace=wrap;html=1;strokeWidth=2;" vertex="1" parent="WIyWlLk6GJQsqaUBKTNV-1">
          <mxGeometry x="100" y="970" width="620" height="130" as="geometry" />
        </mxCell>
        <mxCell id="j8_yJqGy1lRNZSkHVBPh-43" value="&lt;span style=&quot;font-weight: normal&quot;&gt;&lt;font style=&quot;font-size: 16px&quot;&gt;pageNumber not last&lt;/font&gt;&lt;/span&gt;" style="text;strokeColor=none;fillColor=none;html=1;fontSize=24;fontStyle=1;verticalAlign=middle;align=center;" vertex="1" parent="WIyWlLk6GJQsqaUBKTNV-1">
          <mxGeometry x="140" y="1120" width="100" height="40" as="geometry" />
        </mxCell>
        <mxCell id="j8_yJqGy1lRNZSkHVBPh-44" value="" style="endArrow=classic;html=1;entryX=0.999;entryY=0.42;entryDx=0;entryDy=0;entryPerimeter=0;" edge="1" parent="WIyWlLk6GJQsqaUBKTNV-1" source="j8_yJqGy1lRNZSkHVBPh-40" target="j8_yJqGy1lRNZSkHVBPh-33">
          <mxGeometry width="50" height="50" relative="1" as="geometry">
            <mxPoint x="390" y="1170" as="sourcePoint" />
            <mxPoint x="440" y="1120" as="targetPoint" />
            <Array as="points">
              <mxPoint x="830" y="1010" />
            </Array>
          </mxGeometry>
        </mxCell>
        <mxCell id="j8_yJqGy1lRNZSkHVBPh-45" value="&lt;span style=&quot;color: rgb(0 , 0 , 0) ; font-family: &amp;#34;helvetica&amp;#34; ; font-size: 16px ; font-style: normal ; font-weight: 400 ; letter-spacing: normal ; text-align: center ; text-indent: 0px ; text-transform: none ; word-spacing: 0px ; background-color: rgb(248 , 249 , 250) ; display: inline ; float: none&quot;&gt;pageNumber is last =&amp;gt; меняем регион&lt;/span&gt;" style="text;whiteSpace=wrap;html=1;" vertex="1" parent="WIyWlLk6GJQsqaUBKTNV-1">
          <mxGeometry x="650" y="855" width="299" height="30" as="geometry" />
        </mxCell>
      </root>
    </mxGraphModel>
  </diagram>
</mxfile>
